<svg xmlns="http://www.w3.org/2000/svg" xmlns:v="https://svgstorm.com"
viewBox = "0 0 181 172"
width="181"
height="172">
<g fill="None" fill-opacity="0.0" stroke="#000000" stroke-opacity="0.01" stroke-width="0.3"><path d="
M 0.00 172.00 
L 181.00 172.00
L 181.00 0.00
L 0.00 0.00
L 0.00 172.00
M 147.00 42.00 
C 143.97 42.75 141.96 42.65 139.00 42.00
C 138.67 42.00 136.16 41.78 136.00 42.00
C 132.70 41.52 126.65 35.31 126.00 32.00
C 125.82 31.10 126.00 29.92 126.00 29.00
C 125.39 26.24 125.22 24.76 126.00 22.00
C 126.50 20.23 127.09 17.59 128.00 16.00
C 129.15 13.97 131.10 12.20 133.00 11.00
C 134.64 9.97 136.19 9.51 138.00 9.00
C 159.82 2.80 168.93 36.57 147.00 42.00
M 94.00 40.00 
C 91.85 38.83 89.06 36.16 88.00 34.00
C 87.80 33.60 88.00 33.00 88.00 33.00
C 86.97 31.89 87.35 31.53 87.00 30.00
C 86.06 25.92 85.91 21.91 88.00 18.00
C 89.03 16.06 91.12 14.00 93.00 13.00
C 103.85 7.21 116.81 13.89 117.00 26.00 C 117.19 38.11 104.28 45.61 94.00 40.00
M 58.00 39.00 
C 56.14 38.16 53.84 35.78 53.00 34.00
C 52.63 33.21 52.36 31.91 52.00 31.00
C 50.85 28.13 50.87 25.82 52.00 23.00
C 52.37 22.08 52.61 20.83 53.00 20.00
C 53.87 18.16 56.20 15.82 58.00 15.00
C 67.32 10.79 78.01 16.76 78.00 27.00 C 77.99 37.24 67.34 43.22 58.00 39.00
M 24.00 20.00 
C 25.22 17.86 26.69 16.51 29.00 16.00
C 41.51 13.23 51.63 26.78 40.75 35.75 C 29.88 44.72 18.00 30.54 24.00 20.00
M 147.00 52.00 
C 161.56 56.12 161.42 76.09 147.00 80.00
C 143.98 80.82 141.99 80.95 139.00 80.00
C 134.47 78.57 132.16 75.99 130.00 72.00
C 128.39 69.01 127.63 67.14 128.00 63.00
C 127.34 61.21 129.34 60.87 130.00 60.00
C 131.75 56.26 134.93 52.89 139.00 52.00
C 141.13 49.78 144.90 51.40 147.00 52.00
M 96.00 78.00 
C 92.69 76.51 90.92 73.09 90.00 70.00
C 89.24 67.44 89.29 66.50 90.00 64.00
C 90.49 62.28 90.99 60.57 92.00 59.00
C 92.89 57.62 93.68 56.87 95.00 56.00
C 96.08 55.30 97.75 54.27 99.00 54.00
C 121.20 49.19 118.49 88.16 96.00 78.00
M 68.00 77.00 
C 65.40 77.74 62.97 78.34 60.00 77.00
C 58.42 76.28 56.69 74.53 56.00 73.00
C 54.74 70.21 54.23 65.39 56.00 63.00
C 56.00 62.50 56.00 62.00 56.00 62.00
C 57.48 58.98 59.96 57.45 63.00 57.00
C 76.45 54.99 80.96 73.30 68.00 77.00
M 31.00 77.00 
C 21.91 75.16 22.29 62.18 30.00 59.00
C 45.45 52.64 49.33 80.71 31.00 77.00
M 141.00 115.00 
C 137.42 113.93 136.50 112.85 134.00 110.00
C 132.95 108.80 131.94 109.04 132.00 107.00
C 132.01 106.50 132.00 106.00 132.00 106.00
C 130.28 104.05 131.39 102.83 132.00 101.00
C 132.16 99.89 132.39 98.98 133.00 98.00
C 133.34 96.61 133.04 95.70 135.00 94.00
C 135.66 93.22 137.15 92.51 138.00 92.00
C 159.66 79.00 165.78 122.42 141.00 115.00
M 105.00 114.00 
C 102.72 114.59 102.29 114.76 100.00 114.00
C 98.84 113.83 98.04 113.57 97.00 113.00
C 94.30 111.52 92.42 108.95 92.00 106.00
C 91.63 103.42 92.01 100.29 93.00 98.00
C 93.96 95.79 95.67 93.98 98.00 93.00
C 113.08 86.64 120.82 109.95 105.00 114.00
M 75.00 101.00 
C 75.13 101.26 75.77 101.72 76.00 102.00
C 77.63 103.99 76.68 105.12 76.00 107.00
C 73.03 115.17 61.65 115.97 58.00 108.00
C 57.15 106.15 56.37 104.85 58.00 103.00
C 58.00 102.50 58.00 102.00 58.00 102.00
C 58.55 99.17 61.20 96.57 64.00 96.00
C 69.12 94.96 72.91 96.59 75.00 101.00
M 39.00 98.00 
C 47.75 101.23 41.16 117.39 32.33 112.67 C 23.50 107.95 28.84 94.25 39.00 98.00
M 142.00 145.00 
C 141.57 144.83 140.24 145.25 140.00 145.00
C 139.49 144.48 138.57 144.35 138.00 144.00
C 135.66 142.57 135.30 141.26 135.00 140.00
C 134.49 139.46 134.35 138.61 134.00 138.00
C 132.61 135.56 133.31 134.31 134.00 132.00
C 134.83 129.21 136.06 126.36 139.00 125.00
C 160.32 115.14 160.09 152.23 142.00 145.00
M 101.00 144.00 
C 99.85 143.82 99.04 143.58 98.00 143.00
C 96.66 142.26 95.65 141.35 95.00 140.00
C 93.60 137.09 93.67 132.94 95.00 130.00
C 95.67 128.53 97.48 126.52 99.00 126.00
C 99.45 125.85 100.50 126.03 101.00 126.00
C 116.66 125.02 115.68 146.32 101.00 144.00
M 60.00 138.00 
C 59.33 136.11 58.30 134.94 60.00 133.00
C 60.00 132.50 60.00 132.00 60.00 132.00
C 60.41 130.79 61.82 129.37 63.00 129.00
C 84.15 122.29 66.86 157.47 60.00 138.00
M 38.00 130.00 
C 44.02 131.98 40.81 144.36 33.78 141.22 C 26.75 138.08 30.90 127.67 38.00 130.00 Z"/>
</g>
<g fill="None" fill-opacity="0.0" stroke="#E98C25" stroke-opacity="1.00" stroke-width="0.3"><path d="
M 138.00 9.00 
C 122.25 15.56 127.04 30.78 135.00 41.00
C 135.32 41.20 136.10 41.86 136.00 42.00
C 136.16 41.78 138.67 42.00 139.00 42.00
C 141.60 42.00 144.42 42.32 147.00 42.00
C 168.93 36.57 159.82 2.80 138.00 9.00 Z"/>
</g>
<g fill="None" fill-opacity="0.0" stroke="#AA8361" stroke-opacity="1.00" stroke-width="0.3"><path d="
M 133.00 11.00 
C 131.92 11.80 128.69 14.97 128.00 16.00
C 127.09 17.59 126.50 20.23 126.00 22.00
C 125.68 24.23 126.00 26.75 126.00 29.00
C 126.00 29.92 125.82 31.10 126.00 32.00
C 126.97 34.64 132.46 39.43 135.00 41.00
C 127.04 30.78 122.25 15.56 138.00 9.00
C 136.19 9.51 134.64 9.97 133.00 11.00 Z"/>
</g>
<g fill="None" fill-opacity="0.0" stroke="#E68B2B" stroke-opacity="1.00" stroke-width="0.3"><path d="
M 93.00 13.00 
C 92.12 13.55 88.51 17.19 88.00 18.00
C 85.91 21.91 86.06 25.92 87.00 30.00
C 87.41 31.00 88.19 31.40 88.00 33.00
C 88.00 33.00 87.80 33.60 88.00 34.00
C 90.21 35.54 91.98 38.70 94.00 40.00
C 104.28 45.61 117.19 38.11 117.00 26.00 C 116.81 13.89 103.85 7.21 93.00 13.00 Z"/>
</g>
<g fill="None" fill-opacity="0.0" stroke="#514B4E" stroke-opacity="0.93" stroke-width="0.3"><path d="
M 128.00 16.00 
C 128.69 14.97 131.92 11.80 133.00 11.00
C 131.10 12.20 129.15 13.97 128.00 16.00 Z"/>
</g>
<g fill="None" fill-opacity="0.0" stroke="#514849" stroke-opacity="0.93" stroke-width="0.3"><path d="
M 88.00 18.00 
C 88.51 17.19 92.12 13.55 93.00 13.00
C 91.12 14.00 89.03 16.06 88.00 18.00 Z"/>
</g>
<g fill="None" fill-opacity="0.0" stroke="#E58B2A" stroke-opacity="1.00" stroke-width="0.3"><path d="
M 58.00 15.00 
C 57.26 15.40 53.43 19.32 53.00 20.00
C 52.61 20.83 52.37 22.08 52.00 23.00
C 51.59 25.09 51.59 28.91 52.00 31.00
C 52.36 31.91 52.63 33.21 53.00 34.00
C 53.47 34.74 57.33 38.64 58.00 39.00
C 67.34 43.22 77.99 37.24 78.00 27.00 C 78.01 16.76 67.32 10.79 58.00 15.00 Z"/>
</g>
<g fill="None" fill-opacity="0.0" stroke="#614C40" stroke-opacity="0.94" stroke-width="0.3"><path d="
M 53.00 20.00 
C 53.43 19.32 57.26 15.40 58.00 15.00
C 56.20 15.82 53.87 18.16 53.00 20.00 Z"/>
</g>
<g fill="None" fill-opacity="0.0" stroke="#423637" stroke-opacity="0.60" stroke-width="0.3"><path d="
M 24.00 20.00 
C 24.69 19.06 28.16 16.26 29.00 16.00
C 26.69 16.51 25.22 17.86 24.00 20.00 Z"/>
</g>
<g fill="None" fill-opacity="0.0" stroke="#E18A2E" stroke-opacity="1.00" stroke-width="0.3"><path d="
M 24.00 20.00 
C 18.00 30.54 29.88 44.72 40.75 35.75 C 51.63 26.78 41.51 13.23 29.00 16.00
C 28.16 16.26 24.69 19.06 24.00 20.00 Z"/>
</g>
<g fill="None" fill-opacity="0.0" stroke="#514E55" stroke-opacity="0.98" stroke-width="0.3"><path d="
M 126.00 29.00 
C 126.00 26.75 125.68 24.23 126.00 22.00
C 125.22 24.76 125.39 26.24 126.00 29.00 Z"/>
</g>
<g fill="None" fill-opacity="0.0" stroke="#554946" stroke-opacity="0.91" stroke-width="0.3"><path d="
M 52.00 31.00 
C 51.59 28.91 51.59 25.09 52.00 23.00
C 50.87 25.82 50.85 28.13 52.00 31.00 Z"/>
</g>
<g fill="None" fill-opacity="0.0" stroke="#857268" stroke-opacity="1.00" stroke-width="0.3"><path d="
M 88.00 33.00 
C 88.19 31.40 87.41 31.00 87.00 30.00
C 87.35 31.53 86.97 31.89 88.00 33.00 Z"/>
</g>
<g fill="None" fill-opacity="0.0" stroke="#4F4C4E" stroke-opacity="0.72" stroke-width="0.3"><path d="
M 136.00 42.00 
C 136.10 41.86 135.32 41.20 135.00 41.00
C 132.46 39.43 126.97 34.64 126.00 32.00
C 126.65 35.31 132.70 41.52 136.00 42.00 Z"/>
</g>
<g fill="None" fill-opacity="0.0" stroke="#58463E" stroke-opacity="0.71" stroke-width="0.3"><path d="
M 58.00 39.00 
C 57.33 38.64 53.47 34.74 53.00 34.00
C 53.84 35.78 56.14 38.16 58.00 39.00 Z"/>
</g>
<g fill="None" fill-opacity="0.0" stroke="#776156" stroke-opacity="0.98" stroke-width="0.3"><path d="
M 94.00 40.00 
C 91.98 38.70 90.21 35.54 88.00 34.00
C 89.06 36.16 91.85 38.83 94.00 40.00 Z"/>
</g>
<g fill="None" fill-opacity="0.0" stroke="#866448" stroke-opacity="0.98" stroke-width="0.3"><path d="
M 147.00 42.00 
C 144.42 42.32 141.60 42.00 139.00 42.00
C 141.96 42.65 143.97 42.75 147.00 42.00 Z"/>
</g>
<g fill="None" fill-opacity="0.0" stroke="#634D3D" stroke-opacity="0.93" stroke-width="0.3"><path d="
M 139.00 52.00 
C 139.48 51.90 140.00 52.00 140.00 52.00
C 142.25 52.00 144.77 51.68 147.00 52.00
C 144.90 51.40 141.13 49.78 139.00 52.00 Z"/>
</g>
<g fill="None" fill-opacity="0.0" stroke="#A98362" stroke-opacity="0.99" stroke-width="0.3"><path d="
M 130.00 60.00 
C 129.46 61.16 129.20 61.69 129.00 63.00
C 128.52 66.10 128.99 69.24 130.00 72.00
C 132.16 75.99 134.47 78.57 139.00 80.00
C 132.76 78.03 131.52 72.12 130.00 66.00 C 128.48 59.88 136.90 55.54 140.00 52.00
C 140.00 52.00 139.48 51.90 139.00 52.00
C 134.93 52.89 131.75 56.26 130.00 60.00 Z"/>
</g>
<g fill="None" fill-opacity="0.0" stroke="#E98C24" stroke-opacity="1.00" stroke-width="0.3"><path d="
M 139.00 80.00 
C 140.90 80.60 145.02 80.28 147.00 80.00
C 161.42 76.09 161.56 56.12 147.00 52.00
C 144.77 51.68 142.25 52.00 140.00 52.00
C 136.90 55.54 128.48 59.88 130.00 66.00 C 131.52 72.12 132.76 78.03 139.00 80.00 Z"/>
</g>
<g fill="None" fill-opacity="0.0" stroke="#8A6C57" stroke-opacity="0.99" stroke-width="0.3"><path d="
M 95.00 56.00 
C 94.35 56.52 92.47 58.41 92.00 59.00
C 90.99 60.57 90.49 62.28 90.00 64.00
C 90.55 61.52 96.58 54.72 99.00 54.00
C 97.75 54.27 96.08 55.30 95.00 56.00 Z"/>
</g>
<g fill="None" fill-opacity="0.0" stroke="#E58B2A" stroke-opacity="1.00" stroke-width="0.3"><path d="
M 90.00 64.00 
C 89.67 65.48 89.67 68.52 90.00 70.00
C 90.34 71.53 94.42 77.14 96.00 78.00
C 118.49 88.16 121.20 49.19 99.00 54.00
C 96.58 54.72 90.55 61.52 90.00 64.00 Z"/>
</g>
<g fill="None" fill-opacity="0.0" stroke="#4C4040" stroke-opacity="0.84" stroke-width="0.3"><path d="
M 92.00 59.00 
C 92.47 58.41 94.35 56.52 95.00 56.00
C 93.68 56.87 92.89 57.62 92.00 59.00 Z"/>
</g>
<g fill="None" fill-opacity="0.0" stroke="#7B5F4B" stroke-opacity="0.99" stroke-width="0.3"><path d="
M 56.00 62.00 
C 58.23 60.44 60.61 57.51 63.00 57.00
C 59.96 57.45 57.48 58.98 56.00 62.00 Z"/>
</g>
<g fill="None" fill-opacity="0.0" stroke="#E58B2A" stroke-opacity="1.00" stroke-width="0.3"><path d="
M 56.00 62.00 
C 56.00 62.00 56.00 62.50 56.00 63.00
C 56.00 71.01 58.23 78.29 68.00 77.00
C 80.96 73.30 76.45 54.99 63.00 57.00
C 60.61 57.51 58.23 60.44 56.00 62.00 Z"/>
</g>
<g fill="None" fill-opacity="0.0" stroke="#DE892F" stroke-opacity="1.00" stroke-width="0.3"><path d="
M 30.00 59.00 
C 23.47 62.60 23.41 74.83 31.00 77.00
C 49.33 80.71 45.45 52.64 30.00 59.00 Z"/>
</g>
<g fill="None" fill-opacity="0.0" stroke="#6D5340" stroke-opacity="0.94" stroke-width="0.3"><path d="
M 31.00 77.00 
C 23.41 74.83 23.47 62.60 30.00 59.00
C 22.29 62.18 21.91 75.16 31.00 77.00 Z"/>
</g>
<g fill="None" fill-opacity="0.0" stroke="#384055" stroke-opacity="0.62" stroke-width="0.3"><path d="
M 128.00 63.00 
C 128.00 62.96 129.00 63.00 129.00 63.00
C 129.20 61.69 129.46 61.16 130.00 60.00
C 129.34 60.87 127.34 61.21 128.00 63.00 Z"/>
</g>
<g fill="None" fill-opacity="0.0" stroke="#A87C53" stroke-opacity="1.00" stroke-width="0.3"><path d="
M 56.00 73.00 
C 56.20 73.37 59.70 76.84 60.00 77.00
C 62.97 78.34 65.40 77.74 68.00 77.00
C 58.23 78.29 56.00 71.01 56.00 63.00
C 54.23 65.39 54.74 70.21 56.00 73.00 Z"/>
</g>
<g fill="None" fill-opacity="0.0" stroke="#4E4D58" stroke-opacity="0.89" stroke-width="0.3"><path d="
M 130.00 72.00 
C 128.99 69.24 128.52 66.10 129.00 63.00
C 129.00 63.00 128.00 62.96 128.00 63.00
C 127.63 67.14 128.39 69.01 130.00 72.00 Z"/>
</g>
<g fill="None" fill-opacity="0.0" stroke="#403C42" stroke-opacity="0.80" stroke-width="0.3"><path d="
M 90.00 70.00 
C 89.67 68.52 89.67 65.48 90.00 64.00
C 89.29 66.50 89.24 67.44 90.00 70.00 Z"/>
</g>
<g fill="None" fill-opacity="0.0" stroke="#6A5953" stroke-opacity="0.98" stroke-width="0.3"><path d="
M 96.00 78.00 
C 94.42 77.14 90.34 71.53 90.00 70.00
C 90.92 73.09 92.69 76.51 96.00 78.00 Z"/>
</g>
<g fill="None" fill-opacity="0.0" stroke="#5E4B3F" stroke-opacity="0.89" stroke-width="0.3"><path d="
M 60.00 77.00 
C 59.70 76.84 56.20 73.37 56.00 73.00
C 56.69 74.53 58.42 76.28 60.00 77.00 Z"/>
</g>
<g fill="None" fill-opacity="0.0" stroke="#83644A" stroke-opacity="0.99" stroke-width="0.3"><path d="
M 147.00 80.00 
C 145.02 80.28 140.90 80.60 139.00 80.00
C 141.99 80.95 143.98 80.82 147.00 80.00 Z"/>
</g>
<g fill="None" fill-opacity="0.0" stroke="#E68B27" stroke-opacity="1.00" stroke-width="0.3"><path d="
M 138.00 92.00 
C 136.61 93.01 135.50 94.95 134.00 96.00
C 133.91 96.48 134.00 97.00 134.00 97.00
C 132.84 104.05 133.50 111.49 141.00 115.00
C 165.78 122.42 159.66 79.00 138.00 92.00 Z"/>
</g>
<g fill="None" fill-opacity="0.0" stroke="#E28A2C" stroke-opacity="1.00" stroke-width="0.3"><path d="
M 98.00 93.00 
C 97.38 93.33 93.30 97.45 93.00 98.00
C 92.01 100.29 91.63 103.42 92.00 106.00
C 92.23 107.05 95.75 112.12 97.00 113.00
C 98.04 113.57 98.84 113.83 100.00 114.00
C 101.49 114.22 103.50 114.16 105.00 114.00
C 120.82 109.95 113.08 86.64 98.00 93.00 Z"/>
</g>
<g fill="None" fill-opacity="0.0" stroke="#917767" stroke-opacity="1.00" stroke-width="0.3"><path d="
M 135.00 94.00 
C 134.58 94.49 134.11 95.37 134.00 96.00
C 135.50 94.95 136.61 93.01 138.00 92.00
C 137.15 92.51 135.66 93.22 135.00 94.00 Z"/>
</g>
<g fill="None" fill-opacity="0.0" stroke="#4B4A48" stroke-opacity="0.71" stroke-width="0.3"><path d="
M 93.00 98.00 
C 93.30 97.45 97.38 93.33 98.00 93.00
C 95.67 93.98 93.96 95.79 93.00 98.00 Z"/>
</g>
<g fill="None" fill-opacity="0.0" stroke="#3A3D4C" stroke-opacity="0.48" stroke-width="0.3"><path d="
M 133.00 98.00 
C 133.20 97.68 133.88 97.26 134.00 97.00
C 134.00 97.00 133.91 96.48 134.00 96.00
C 134.11 95.37 134.58 94.49 135.00 94.00
C 133.04 95.70 133.34 96.61 133.00 98.00 Z"/>
</g>
<g fill="None" fill-opacity="0.0" stroke="#725845" stroke-opacity="0.96" stroke-width="0.3"><path d="
M 58.00 102.00 
C 59.04 100.37 62.14 96.53 64.00 96.00
C 61.20 96.57 58.55 99.17 58.00 102.00 Z"/>
</g>
<g fill="None" fill-opacity="0.0" stroke="#E08A2F" stroke-opacity="1.00" stroke-width="0.3"><path d="
M 58.00 102.00 
C 58.00 102.00 58.00 102.50 58.00 103.00
C 58.00 104.51 57.64 106.55 58.00 108.00
C 61.65 115.97 73.03 115.17 76.00 107.00
C 76.10 105.98 73.99 102.85 75.00 101.00
C 72.91 96.59 69.12 94.96 64.00 96.00
C 62.14 96.53 59.04 100.37 58.00 102.00 Z"/>
</g>
<g fill="None" fill-opacity="0.0" stroke="#AC8565" stroke-opacity="1.00" stroke-width="0.3"><path d="
M 133.00 98.00 
C 132.39 98.98 132.16 99.89 132.00 101.00
C 131.77 102.59 132.00 104.39 132.00 106.00
C 132.00 106.00 132.01 106.50 132.00 107.00
C 132.67 107.89 133.34 108.96 134.00 110.00
C 136.50 112.85 137.42 113.93 141.00 115.00
C 133.50 111.49 132.84 104.05 134.00 97.00
C 133.88 97.26 133.20 97.68 133.00 98.00 Z"/>
</g>
<g fill="None" fill-opacity="0.0" stroke="#E08B32" stroke-opacity="1.00" stroke-width="0.3"><path d="
M 39.00 98.00 
C 28.84 94.25 23.50 107.95 32.33 112.67 C 41.16 117.39 47.75 101.23 39.00 98.00 Z"/>
</g>
<g fill="None" fill-opacity="0.0" stroke="#A46523" stroke-opacity="1.00" stroke-width="0.3"><path d="
M 76.00 107.00 
C 75.67 105.42 76.43 103.55 76.00 102.00
C 75.77 101.72 75.13 101.26 75.00 101.00
C 73.99 102.85 76.10 105.98 76.00 107.00 Z"/>
</g>
<g fill="None" fill-opacity="0.0" stroke="#454650" stroke-opacity="0.96" stroke-width="0.3"><path d="
M 132.00 106.00 
C 132.00 104.39 131.77 102.59 132.00 101.00
C 131.39 102.83 130.28 104.05 132.00 106.00 Z"/>
</g>
<g fill="None" fill-opacity="0.0" stroke="#422B25" stroke-opacity="0.13" stroke-width="0.3"><path d="
M 76.00 107.00 
C 76.68 105.12 77.63 103.99 76.00 102.00
C 76.43 103.55 75.67 105.42 76.00 107.00 Z"/>
</g>
<g fill="None" fill-opacity="0.0" stroke="#423D41" stroke-opacity="0.72" stroke-width="0.3"><path d="
M 58.00 108.00 
C 57.64 106.55 58.00 104.51 58.00 103.00
C 56.37 104.85 57.15 106.15 58.00 108.00 Z"/>
</g>
<g fill="None" fill-opacity="0.0" stroke="#8C705F" stroke-opacity="0.99" stroke-width="0.3"><path d="
M 97.00 113.00 
C 95.75 112.12 92.23 107.05 92.00 106.00
C 92.42 108.95 94.30 111.52 97.00 113.00 Z"/>
</g>
<g fill="None" fill-opacity="0.0" stroke="#545159" stroke-opacity="0.94" stroke-width="0.3"><path d="
M 134.00 110.00 
C 133.34 108.96 132.67 107.89 132.00 107.00
C 131.94 109.04 132.95 108.80 134.00 110.00 Z"/>
</g>
<g fill="None" fill-opacity="0.0" stroke="#6E5441" stroke-opacity="0.97" stroke-width="0.3"><path d="
M 105.00 114.00 
C 103.50 114.16 101.49 114.22 100.00 114.00
C 102.29 114.76 102.72 114.59 105.00 114.00 Z"/>
</g>
<g fill="None" fill-opacity="0.0" stroke="#E58B29" stroke-opacity="1.00" stroke-width="0.3"><path d="
M 139.00 125.00 
C 137.31 126.01 136.86 128.67 136.00 130.00
C 134.89 133.11 135.16 135.98 135.98 139.02 C 136.79 142.07 141.31 142.64 142.00 145.00
C 160.09 152.23 160.32 115.14 139.00 125.00 Z"/>
</g>
<g fill="None" fill-opacity="0.0" stroke="#6C615E" stroke-opacity="1.00" stroke-width="0.3"><path d="
M 134.00 132.00 
C 134.22 131.38 135.65 130.54 136.00 130.00
C 136.86 128.67 137.31 126.01 139.00 125.00
C 136.06 126.36 134.83 129.21 134.00 132.00 Z"/>
</g>
<g fill="None" fill-opacity="0.0" stroke="#514644" stroke-opacity="0.93" stroke-width="0.3"><path d="
M 95.00 130.00 
C 95.34 129.38 98.42 126.45 99.00 126.00
C 97.48 126.52 95.67 128.53 95.00 130.00 Z"/>
</g>
<g fill="None" fill-opacity="0.0" stroke="#98775D" stroke-opacity="1.00" stroke-width="0.3"><path d="
M 95.00 130.00 
C 93.67 132.94 93.60 137.09 95.00 140.00
C 95.21 140.35 97.69 142.78 98.00 143.00
C 99.04 143.58 99.85 143.82 101.00 144.00
C 96.72 142.78 96.39 138.80 95.01 134.99 C 93.62 131.19 100.33 128.28 101.00 126.00
C 100.50 126.03 99.45 125.85 99.00 126.00
C 98.42 126.45 95.34 129.38 95.00 130.00 Z"/>
</g>
<g fill="None" fill-opacity="0.0" stroke="#E68C2B" stroke-opacity="1.00" stroke-width="0.3"><path d="
M 101.00 144.00 
C 115.68 146.32 116.66 125.02 101.00 126.00
C 100.33 128.28 93.62 131.19 95.01 134.99 C 96.39 138.80 96.72 142.78 101.00 144.00 Z"/>
</g>
<g fill="None" fill-opacity="0.0" stroke="#41393C" stroke-opacity="0.86" stroke-width="0.3"><path d="
M 60.00 132.00 
C 60.71 131.48 62.52 129.20 63.00 129.00
C 61.82 129.37 60.41 130.79 60.00 132.00 Z"/>
</g>
<g fill="None" fill-opacity="0.0" stroke="#DD8932" stroke-opacity="0.99" stroke-width="0.3"><path d="
M 60.00 132.00 
C 60.00 132.00 60.00 132.50 60.00 133.00
C 60.00 134.59 59.73 136.44 60.00 138.00
C 66.86 157.47 84.15 122.29 63.00 129.00
C 62.52 129.20 60.71 131.48 60.00 132.00 Z"/>
</g>
<g fill="None" fill-opacity="0.0" stroke="#CF8439" stroke-opacity="0.99" stroke-width="0.3"><path d="
M 38.00 130.00 
C 30.90 127.67 26.75 138.08 33.78 141.22 C 40.81 144.36 44.02 131.98 38.00 130.00 Z"/>
</g>
<g fill="None" fill-opacity="0.0" stroke="#B38A66" stroke-opacity="1.00" stroke-width="0.3"><path d="
M 134.00 132.00 
C 133.58 133.19 133.69 136.77 134.00 138.00
C 134.35 138.61 134.49 139.46 135.00 140.00
C 136.28 141.37 138.61 143.93 140.00 145.00
C 140.24 145.25 141.57 144.83 142.00 145.00
C 141.31 142.64 136.79 142.07 135.98 139.02 C 135.16 135.98 134.89 133.11 136.00 130.00
C 135.65 130.54 134.22 131.38 134.00 132.00 Z"/>
</g>
<g fill="None" fill-opacity="0.0" stroke="#333541" stroke-opacity="0.44" stroke-width="0.3"><path d="
M 134.00 138.00 
C 133.69 136.77 133.58 133.19 134.00 132.00
C 133.31 134.31 132.61 135.56 134.00 138.00 Z"/>
</g>
<g fill="None" fill-opacity="0.0" stroke="#5B504C" stroke-opacity="0.98" stroke-width="0.3"><path d="
M 60.00 138.00 
C 59.73 136.44 60.00 134.59 60.00 133.00
C 58.30 134.94 59.33 136.11 60.00 138.00 Z"/>
</g>
<g fill="None" fill-opacity="0.0" stroke="#443D41" stroke-opacity="0.72" stroke-width="0.3"><path d="
M 98.00 143.00 
C 97.69 142.78 95.21 140.35 95.00 140.00
C 95.65 141.35 96.66 142.26 98.00 143.00 Z"/>
</g>
<g fill="None" fill-opacity="0.0" stroke="#232F56" stroke-opacity="0.17" stroke-width="0.3"><path d="
M 138.00 144.00 
C 136.87 143.03 135.89 141.15 135.00 140.00
C 135.30 141.26 135.66 142.57 138.00 144.00 Z"/>
</g>
<g fill="None" fill-opacity="0.0" stroke="#78655C" stroke-opacity="0.99" stroke-width="0.3"><path d="
M 138.00 144.00 
C 138.57 144.35 139.49 144.48 140.00 145.00
C 138.61 143.93 136.28 141.37 135.00 140.00
C 135.89 141.15 136.87 143.03 138.00 144.00 Z"/>
</g>
<g fill="#000000" fill-opacity="0.01" stroke="None">
<path d="
M 0.00 172.00 
L 181.00 172.00
L 181.00 0.00
L 0.00 0.00
L 0.00 172.00
M 147.00 42.00 
C 143.97 42.75 141.96 42.65 139.00 42.00
C 138.67 42.00 136.16 41.78 136.00 42.00
C 132.70 41.52 126.65 35.31 126.00 32.00
C 125.82 31.10 126.00 29.92 126.00 29.00
C 125.39 26.24 125.22 24.76 126.00 22.00
C 126.50 20.23 127.09 17.59 128.00 16.00
C 129.15 13.97 131.10 12.20 133.00 11.00
C 134.64 9.97 136.19 9.51 138.00 9.00
C 159.82 2.80 168.93 36.57 147.00 42.00
M 94.00 40.00 
C 91.85 38.83 89.06 36.16 88.00 34.00
C 87.80 33.60 88.00 33.00 88.00 33.00
C 86.97 31.89 87.35 31.53 87.00 30.00
C 86.06 25.92 85.91 21.91 88.00 18.00
C 89.03 16.06 91.12 14.00 93.00 13.00
C 103.85 7.21 116.81 13.89 117.00 26.00 C 117.19 38.11 104.28 45.61 94.00 40.00
M 58.00 39.00 
C 56.14 38.16 53.84 35.78 53.00 34.00
C 52.63 33.21 52.36 31.91 52.00 31.00
C 50.85 28.13 50.87 25.82 52.00 23.00
C 52.37 22.08 52.61 20.83 53.00 20.00
C 53.87 18.16 56.20 15.82 58.00 15.00
C 67.32 10.79 78.01 16.76 78.00 27.00 C 77.99 37.24 67.34 43.22 58.00 39.00
M 24.00 20.00 
C 25.22 17.86 26.69 16.51 29.00 16.00
C 41.51 13.23 51.63 26.78 40.75 35.75 C 29.88 44.72 18.00 30.54 24.00 20.00
M 147.00 52.00 
C 161.56 56.12 161.42 76.09 147.00 80.00
C 143.98 80.82 141.99 80.95 139.00 80.00
C 134.47 78.57 132.16 75.99 130.00 72.00
C 128.39 69.01 127.63 67.14 128.00 63.00
C 127.34 61.21 129.34 60.87 130.00 60.00
C 131.75 56.26 134.93 52.89 139.00 52.00
C 141.13 49.78 144.90 51.40 147.00 52.00
M 96.00 78.00 
C 92.69 76.51 90.92 73.09 90.00 70.00
C 89.24 67.44 89.29 66.50 90.00 64.00
C 90.49 62.28 90.99 60.57 92.00 59.00
C 92.89 57.62 93.68 56.87 95.00 56.00
C 96.08 55.30 97.75 54.27 99.00 54.00
C 121.20 49.19 118.49 88.16 96.00 78.00
M 68.00 77.00 
C 65.40 77.74 62.97 78.34 60.00 77.00
C 58.42 76.28 56.69 74.53 56.00 73.00
C 54.74 70.21 54.23 65.39 56.00 63.00
C 56.00 62.50 56.00 62.00 56.00 62.00
C 57.48 58.98 59.96 57.45 63.00 57.00
C 76.45 54.99 80.96 73.30 68.00 77.00
M 31.00 77.00 
C 21.91 75.16 22.29 62.18 30.00 59.00
C 45.45 52.64 49.33 80.71 31.00 77.00
M 141.00 115.00 
C 137.42 113.93 136.50 112.85 134.00 110.00
C 132.95 108.80 131.94 109.04 132.00 107.00
C 132.01 106.50 132.00 106.00 132.00 106.00
C 130.28 104.05 131.39 102.83 132.00 101.00
C 132.16 99.89 132.39 98.98 133.00 98.00
C 133.34 96.61 133.04 95.70 135.00 94.00
C 135.66 93.22 137.15 92.51 138.00 92.00
C 159.66 79.00 165.78 122.42 141.00 115.00
M 105.00 114.00 
C 102.72 114.59 102.29 114.76 100.00 114.00
C 98.84 113.83 98.04 113.57 97.00 113.00
C 94.30 111.52 92.42 108.95 92.00 106.00
C 91.63 103.42 92.01 100.29 93.00 98.00
C 93.96 95.79 95.67 93.98 98.00 93.00
C 113.08 86.64 120.82 109.95 105.00 114.00
M 75.00 101.00 
C 75.13 101.26 75.77 101.72 76.00 102.00
C 77.63 103.99 76.68 105.12 76.00 107.00
C 73.03 115.17 61.65 115.97 58.00 108.00
C 57.15 106.15 56.37 104.85 58.00 103.00
C 58.00 102.50 58.00 102.00 58.00 102.00
C 58.55 99.17 61.20 96.57 64.00 96.00
C 69.12 94.96 72.91 96.59 75.00 101.00
M 39.00 98.00 
C 47.75 101.23 41.16 117.39 32.33 112.67 C 23.50 107.95 28.84 94.25 39.00 98.00
M 142.00 145.00 
C 141.57 144.83 140.24 145.25 140.00 145.00
C 139.49 144.48 138.57 144.35 138.00 144.00
C 135.66 142.57 135.30 141.26 135.00 140.00
C 134.49 139.46 134.35 138.61 134.00 138.00
C 132.61 135.56 133.31 134.31 134.00 132.00
C 134.83 129.21 136.06 126.36 139.00 125.00
C 160.32 115.14 160.09 152.23 142.00 145.00
M 101.00 144.00 
C 99.85 143.82 99.04 143.58 98.00 143.00
C 96.66 142.26 95.65 141.35 95.00 140.00
C 93.60 137.09 93.67 132.94 95.00 130.00
C 95.67 128.53 97.48 126.52 99.00 126.00
C 99.45 125.85 100.50 126.03 101.00 126.00
C 116.66 125.02 115.68 146.32 101.00 144.00
M 60.00 138.00 
C 59.33 136.11 58.30 134.94 60.00 133.00
C 60.00 132.50 60.00 132.00 60.00 132.00
C 60.41 130.79 61.82 129.37 63.00 129.00
C 84.15 122.29 66.86 157.47 60.00 138.00
M 38.00 130.00 
C 44.02 131.98 40.81 144.36 33.78 141.22 C 26.75 138.08 30.90 127.67 38.00 130.00 Z"/>
</g>
<g fill="#E98C25" fill-opacity="1.00" stroke="None">
<path d="
M 138.00 9.00 
C 122.25 15.56 127.04 30.78 135.00 41.00
C 135.32 41.20 136.10 41.86 136.00 42.00
C 136.16 41.78 138.67 42.00 139.00 42.00
C 141.60 42.00 144.42 42.32 147.00 42.00
C 168.93 36.57 159.82 2.80 138.00 9.00 Z"/>
</g>
<g fill="#AA8361" fill-opacity="1.00" stroke="None">
<path d="
M 133.00 11.00 
C 131.92 11.80 128.69 14.97 128.00 16.00
C 127.09 17.59 126.50 20.23 126.00 22.00
C 125.68 24.23 126.00 26.75 126.00 29.00
C 126.00 29.92 125.82 31.10 126.00 32.00
C 126.97 34.64 132.46 39.43 135.00 41.00
C 127.04 30.78 122.25 15.56 138.00 9.00
C 136.19 9.51 134.64 9.97 133.00 11.00 Z"/>
</g>
<g fill="#E68B2B" fill-opacity="1.00" stroke="None">
<path d="
M 93.00 13.00 
C 92.12 13.55 88.51 17.19 88.00 18.00
C 85.91 21.91 86.06 25.92 87.00 30.00
C 87.41 31.00 88.19 31.40 88.00 33.00
C 88.00 33.00 87.80 33.60 88.00 34.00
C 90.21 35.54 91.98 38.70 94.00 40.00
C 104.28 45.61 117.19 38.11 117.00 26.00 C 116.81 13.89 103.85 7.21 93.00 13.00 Z"/>
</g>
<g fill="#514B4E" fill-opacity="0.93" stroke="None">
<path d="
M 128.00 16.00 
C 128.69 14.97 131.92 11.80 133.00 11.00
C 131.10 12.20 129.15 13.97 128.00 16.00 Z"/>
</g>
<g fill="#514849" fill-opacity="0.93" stroke="None">
<path d="
M 88.00 18.00 
C 88.51 17.19 92.12 13.55 93.00 13.00
C 91.12 14.00 89.03 16.06 88.00 18.00 Z"/>
</g>
<g fill="#E58B2A" fill-opacity="1.00" stroke="None">
<path d="
M 58.00 15.00 
C 57.26 15.40 53.43 19.32 53.00 20.00
C 52.61 20.83 52.37 22.08 52.00 23.00
C 51.59 25.09 51.59 28.91 52.00 31.00
C 52.36 31.91 52.63 33.21 53.00 34.00
C 53.47 34.74 57.33 38.64 58.00 39.00
C 67.34 43.22 77.99 37.24 78.00 27.00 C 78.01 16.76 67.32 10.79 58.00 15.00 Z"/>
</g>
<g fill="#614C40" fill-opacity="0.94" stroke="None">
<path d="
M 53.00 20.00 
C 53.43 19.32 57.26 15.40 58.00 15.00
C 56.20 15.82 53.87 18.16 53.00 20.00 Z"/>
</g>
<g fill="#423637" fill-opacity="0.60" stroke="None">
<path d="
M 24.00 20.00 
C 24.69 19.06 28.16 16.26 29.00 16.00
C 26.69 16.51 25.22 17.86 24.00 20.00 Z"/>
</g>
<g fill="#E18A2E" fill-opacity="1.00" stroke="None">
<path d="
M 24.00 20.00 
C 18.00 30.54 29.88 44.72 40.75 35.75 C 51.63 26.78 41.51 13.23 29.00 16.00
C 28.16 16.26 24.69 19.06 24.00 20.00 Z"/>
</g>
<g fill="#514E55" fill-opacity="0.98" stroke="None">
<path d="
M 126.00 29.00 
C 126.00 26.75 125.68 24.23 126.00 22.00
C 125.22 24.76 125.39 26.24 126.00 29.00 Z"/>
</g>
<g fill="#554946" fill-opacity="0.91" stroke="None">
<path d="
M 52.00 31.00 
C 51.59 28.91 51.59 25.09 52.00 23.00
C 50.87 25.82 50.85 28.13 52.00 31.00 Z"/>
</g>
<g fill="#857268" fill-opacity="1.00" stroke="None">
<path d="
M 88.00 33.00 
C 88.19 31.40 87.41 31.00 87.00 30.00
C 87.35 31.53 86.97 31.89 88.00 33.00 Z"/>
</g>
<g fill="#4F4C4E" fill-opacity="0.72" stroke="None">
<path d="
M 136.00 42.00 
C 136.10 41.86 135.32 41.20 135.00 41.00
C 132.46 39.43 126.97 34.64 126.00 32.00
C 126.65 35.31 132.70 41.52 136.00 42.00 Z"/>
</g>
<g fill="#58463E" fill-opacity="0.71" stroke="None">
<path d="
M 58.00 39.00 
C 57.33 38.64 53.47 34.74 53.00 34.00
C 53.84 35.78 56.14 38.16 58.00 39.00 Z"/>
</g>
<g fill="#776156" fill-opacity="0.98" stroke="None">
<path d="
M 94.00 40.00 
C 91.98 38.70 90.21 35.54 88.00 34.00
C 89.06 36.16 91.85 38.83 94.00 40.00 Z"/>
</g>
<g fill="#866448" fill-opacity="0.98" stroke="None">
<path d="
M 147.00 42.00 
C 144.42 42.32 141.60 42.00 139.00 42.00
C 141.96 42.65 143.97 42.75 147.00 42.00 Z"/>
</g>
<g fill="#634D3D" fill-opacity="0.93" stroke="None">
<path d="
M 139.00 52.00 
C 139.48 51.90 140.00 52.00 140.00 52.00
C 142.25 52.00 144.77 51.68 147.00 52.00
C 144.90 51.40 141.13 49.78 139.00 52.00 Z"/>
</g>
<g fill="#A98362" fill-opacity="0.99" stroke="None">
<path d="
M 130.00 60.00 
C 129.46 61.16 129.20 61.69 129.00 63.00
C 128.52 66.10 128.99 69.24 130.00 72.00
C 132.16 75.99 134.47 78.57 139.00 80.00
C 132.76 78.03 131.52 72.12 130.00 66.00 C 128.48 59.88 136.90 55.54 140.00 52.00
C 140.00 52.00 139.48 51.90 139.00 52.00
C 134.93 52.89 131.75 56.26 130.00 60.00 Z"/>
</g>
<g fill="#E98C24" fill-opacity="1.00" stroke="None">
<path d="
M 139.00 80.00 
C 140.90 80.60 145.02 80.28 147.00 80.00
C 161.42 76.09 161.56 56.12 147.00 52.00
C 144.77 51.68 142.25 52.00 140.00 52.00
C 136.90 55.54 128.48 59.88 130.00 66.00 C 131.52 72.12 132.76 78.03 139.00 80.00 Z"/>
</g>
<g fill="#8A6C57" fill-opacity="0.99" stroke="None">
<path d="
M 95.00 56.00 
C 94.35 56.52 92.47 58.41 92.00 59.00
C 90.99 60.57 90.49 62.28 90.00 64.00
C 90.55 61.52 96.58 54.72 99.00 54.00
C 97.75 54.27 96.08 55.30 95.00 56.00 Z"/>
</g>
<g fill="#E58B2A" fill-opacity="1.00" stroke="None">
<path d="
M 90.00 64.00 
C 89.67 65.48 89.67 68.52 90.00 70.00
C 90.34 71.53 94.42 77.14 96.00 78.00
C 118.49 88.16 121.20 49.19 99.00 54.00
C 96.58 54.72 90.55 61.52 90.00 64.00 Z"/>
</g>
<g fill="#4C4040" fill-opacity="0.84" stroke="None">
<path d="
M 92.00 59.00 
C 92.47 58.41 94.35 56.52 95.00 56.00
C 93.68 56.87 92.89 57.62 92.00 59.00 Z"/>
</g>
<g fill="#7B5F4B" fill-opacity="0.99" stroke="None">
<path d="
M 56.00 62.00 
C 58.23 60.44 60.61 57.51 63.00 57.00
C 59.96 57.45 57.48 58.98 56.00 62.00 Z"/>
</g>
<g fill="#E58B2A" fill-opacity="1.00" stroke="None">
<path d="
M 56.00 62.00 
C 56.00 62.00 56.00 62.50 56.00 63.00
C 56.00 71.01 58.23 78.29 68.00 77.00
C 80.96 73.30 76.45 54.99 63.00 57.00
C 60.61 57.51 58.23 60.44 56.00 62.00 Z"/>
</g>
<g fill="#DE892F" fill-opacity="1.00" stroke="None">
<path d="
M 30.00 59.00 
C 23.47 62.60 23.41 74.83 31.00 77.00
C 49.33 80.71 45.45 52.64 30.00 59.00 Z"/>
</g>
<g fill="#6D5340" fill-opacity="0.94" stroke="None">
<path d="
M 31.00 77.00 
C 23.41 74.83 23.47 62.60 30.00 59.00
C 22.29 62.18 21.91 75.16 31.00 77.00 Z"/>
</g>
<g fill="#384055" fill-opacity="0.62" stroke="None">
<path d="
M 128.00 63.00 
C 128.00 62.96 129.00 63.00 129.00 63.00
C 129.20 61.69 129.46 61.16 130.00 60.00
C 129.34 60.87 127.34 61.21 128.00 63.00 Z"/>
</g>
<g fill="#A87C53" fill-opacity="1.00" stroke="None">
<path d="
M 56.00 73.00 
C 56.20 73.37 59.70 76.84 60.00 77.00
C 62.97 78.34 65.40 77.74 68.00 77.00
C 58.23 78.29 56.00 71.01 56.00 63.00
C 54.23 65.39 54.74 70.21 56.00 73.00 Z"/>
</g>
<g fill="#4E4D58" fill-opacity="0.89" stroke="None">
<path d="
M 130.00 72.00 
C 128.99 69.24 128.52 66.10 129.00 63.00
C 129.00 63.00 128.00 62.96 128.00 63.00
C 127.63 67.14 128.39 69.01 130.00 72.00 Z"/>
</g>
<g fill="#403C42" fill-opacity="0.80" stroke="None">
<path d="
M 90.00 70.00 
C 89.67 68.52 89.67 65.48 90.00 64.00
C 89.29 66.50 89.24 67.44 90.00 70.00 Z"/>
</g>
<g fill="#6A5953" fill-opacity="0.98" stroke="None">
<path d="
M 96.00 78.00 
C 94.42 77.14 90.34 71.53 90.00 70.00
C 90.92 73.09 92.69 76.51 96.00 78.00 Z"/>
</g>
<g fill="#5E4B3F" fill-opacity="0.89" stroke="None">
<path d="
M 60.00 77.00 
C 59.70 76.84 56.20 73.37 56.00 73.00
C 56.69 74.53 58.42 76.28 60.00 77.00 Z"/>
</g>
<g fill="#83644A" fill-opacity="0.99" stroke="None">
<path d="
M 147.00 80.00 
C 145.02 80.28 140.90 80.60 139.00 80.00
C 141.99 80.95 143.98 80.82 147.00 80.00 Z"/>
</g>
<g fill="#E68B27" fill-opacity="1.00" stroke="None">
<path d="
M 138.00 92.00 
C 136.61 93.01 135.50 94.95 134.00 96.00
C 133.91 96.48 134.00 97.00 134.00 97.00
C 132.84 104.05 133.50 111.49 141.00 115.00
C 165.78 122.42 159.66 79.00 138.00 92.00 Z"/>
</g>
<g fill="#E28A2C" fill-opacity="1.00" stroke="None">
<path d="
M 98.00 93.00 
C 97.38 93.33 93.30 97.45 93.00 98.00
C 92.01 100.29 91.63 103.42 92.00 106.00
C 92.23 107.05 95.75 112.12 97.00 113.00
C 98.04 113.57 98.84 113.83 100.00 114.00
C 101.49 114.22 103.50 114.16 105.00 114.00
C 120.82 109.95 113.08 86.64 98.00 93.00 Z"/>
</g>
<g fill="#917767" fill-opacity="1.00" stroke="None">
<path d="
M 135.00 94.00 
C 134.58 94.49 134.11 95.37 134.00 96.00
C 135.50 94.95 136.61 93.01 138.00 92.00
C 137.15 92.51 135.66 93.22 135.00 94.00 Z"/>
</g>
<g fill="#4B4A48" fill-opacity="0.71" stroke="None">
<path d="
M 93.00 98.00 
C 93.30 97.45 97.38 93.33 98.00 93.00
C 95.67 93.98 93.96 95.79 93.00 98.00 Z"/>
</g>
<g fill="#3A3D4C" fill-opacity="0.48" stroke="None">
<path d="
M 133.00 98.00 
C 133.20 97.68 133.88 97.26 134.00 97.00
C 134.00 97.00 133.91 96.48 134.00 96.00
C 134.11 95.37 134.58 94.49 135.00 94.00
C 133.04 95.70 133.34 96.61 133.00 98.00 Z"/>
</g>
<g fill="#725845" fill-opacity="0.96" stroke="None">
<path d="
M 58.00 102.00 
C 59.04 100.37 62.14 96.53 64.00 96.00
C 61.20 96.57 58.55 99.17 58.00 102.00 Z"/>
</g>
<g fill="#E08A2F" fill-opacity="1.00" stroke="None">
<path d="
M 58.00 102.00 
C 58.00 102.00 58.00 102.50 58.00 103.00
C 58.00 104.51 57.64 106.55 58.00 108.00
C 61.65 115.97 73.03 115.17 76.00 107.00
C 76.10 105.98 73.99 102.85 75.00 101.00
C 72.91 96.59 69.12 94.96 64.00 96.00
C 62.14 96.53 59.04 100.37 58.00 102.00 Z"/>
</g>
<g fill="#AC8565" fill-opacity="1.00" stroke="None">
<path d="
M 133.00 98.00 
C 132.39 98.98 132.16 99.89 132.00 101.00
C 131.77 102.59 132.00 104.39 132.00 106.00
C 132.00 106.00 132.01 106.50 132.00 107.00
C 132.67 107.89 133.34 108.96 134.00 110.00
C 136.50 112.85 137.42 113.93 141.00 115.00
C 133.50 111.49 132.84 104.05 134.00 97.00
C 133.88 97.26 133.20 97.68 133.00 98.00 Z"/>
</g>
<g fill="#E08B32" fill-opacity="1.00" stroke="None">
<path d="
M 39.00 98.00 
C 28.84 94.25 23.50 107.95 32.33 112.67 C 41.16 117.39 47.75 101.23 39.00 98.00 Z"/>
</g>
<g fill="#A46523" fill-opacity="1.00" stroke="None">
<path d="
M 76.00 107.00 
C 75.67 105.42 76.43 103.55 76.00 102.00
C 75.77 101.72 75.13 101.26 75.00 101.00
C 73.99 102.85 76.10 105.98 76.00 107.00 Z"/>
</g>
<g fill="#454650" fill-opacity="0.96" stroke="None">
<path d="
M 132.00 106.00 
C 132.00 104.39 131.77 102.59 132.00 101.00
C 131.39 102.83 130.28 104.05 132.00 106.00 Z"/>
</g>
<g fill="#422B25" fill-opacity="0.13" stroke="None">
<path d="
M 76.00 107.00 
C 76.68 105.12 77.63 103.99 76.00 102.00
C 76.43 103.55 75.67 105.42 76.00 107.00 Z"/>
</g>
<g fill="#423D41" fill-opacity="0.72" stroke="None">
<path d="
M 58.00 108.00 
C 57.64 106.55 58.00 104.51 58.00 103.00
C 56.37 104.85 57.15 106.15 58.00 108.00 Z"/>
</g>
<g fill="#8C705F" fill-opacity="0.99" stroke="None">
<path d="
M 97.00 113.00 
C 95.75 112.12 92.23 107.05 92.00 106.00
C 92.42 108.95 94.30 111.52 97.00 113.00 Z"/>
</g>
<g fill="#545159" fill-opacity="0.94" stroke="None">
<path d="
M 134.00 110.00 
C 133.34 108.96 132.67 107.89 132.00 107.00
C 131.94 109.04 132.95 108.80 134.00 110.00 Z"/>
</g>
<g fill="#6E5441" fill-opacity="0.97" stroke="None">
<path d="
M 105.00 114.00 
C 103.50 114.16 101.49 114.22 100.00 114.00
C 102.29 114.76 102.72 114.59 105.00 114.00 Z"/>
</g>
<g fill="#E58B29" fill-opacity="1.00" stroke="None">
<path d="
M 139.00 125.00 
C 137.31 126.01 136.86 128.67 136.00 130.00
C 134.89 133.11 135.16 135.98 135.98 139.02 C 136.79 142.07 141.31 142.64 142.00 145.00
C 160.09 152.23 160.32 115.14 139.00 125.00 Z"/>
</g>
<g fill="#6C615E" fill-opacity="1.00" stroke="None">
<path d="
M 134.00 132.00 
C 134.22 131.38 135.65 130.54 136.00 130.00
C 136.86 128.67 137.31 126.01 139.00 125.00
C 136.06 126.36 134.83 129.21 134.00 132.00 Z"/>
</g>
<g fill="#514644" fill-opacity="0.93" stroke="None">
<path d="
M 95.00 130.00 
C 95.34 129.38 98.42 126.45 99.00 126.00
C 97.48 126.52 95.67 128.53 95.00 130.00 Z"/>
</g>
<g fill="#98775D" fill-opacity="1.00" stroke="None">
<path d="
M 95.00 130.00 
C 93.67 132.94 93.60 137.09 95.00 140.00
C 95.21 140.35 97.69 142.78 98.00 143.00
C 99.04 143.58 99.85 143.82 101.00 144.00
C 96.72 142.78 96.39 138.80 95.01 134.99 C 93.62 131.19 100.33 128.28 101.00 126.00
C 100.50 126.03 99.45 125.85 99.00 126.00
C 98.42 126.45 95.34 129.38 95.00 130.00 Z"/>
</g>
<g fill="#E68C2B" fill-opacity="1.00" stroke="None">
<path d="
M 101.00 144.00 
C 115.68 146.32 116.66 125.02 101.00 126.00
C 100.33 128.28 93.62 131.19 95.01 134.99 C 96.39 138.80 96.72 142.78 101.00 144.00 Z"/>
</g>
<g fill="#41393C" fill-opacity="0.86" stroke="None">
<path d="
M 60.00 132.00 
C 60.71 131.48 62.52 129.20 63.00 129.00
C 61.82 129.37 60.41 130.79 60.00 132.00 Z"/>
</g>
<g fill="#DD8932" fill-opacity="0.99" stroke="None">
<path d="
M 60.00 132.00 
C 60.00 132.00 60.00 132.50 60.00 133.00
C 60.00 134.59 59.73 136.44 60.00 138.00
C 66.86 157.47 84.15 122.29 63.00 129.00
C 62.52 129.20 60.71 131.48 60.00 132.00 Z"/>
</g>
<g fill="#CF8439" fill-opacity="0.99" stroke="None">
<path d="
M 38.00 130.00 
C 30.90 127.67 26.75 138.08 33.78 141.22 C 40.81 144.36 44.02 131.98 38.00 130.00 Z"/>
</g>
<g fill="#B38A66" fill-opacity="1.00" stroke="None">
<path d="
M 134.00 132.00 
C 133.58 133.19 133.69 136.77 134.00 138.00
C 134.35 138.61 134.49 139.46 135.00 140.00
C 136.28 141.37 138.61 143.93 140.00 145.00
C 140.24 145.25 141.57 144.83 142.00 145.00
C 141.31 142.64 136.79 142.07 135.98 139.02 C 135.16 135.98 134.89 133.11 136.00 130.00
C 135.65 130.54 134.22 131.38 134.00 132.00 Z"/>
</g>
<g fill="#333541" fill-opacity="0.44" stroke="None">
<path d="
M 134.00 138.00 
C 133.69 136.77 133.58 133.19 134.00 132.00
C 133.31 134.31 132.61 135.56 134.00 138.00 Z"/>
</g>
<g fill="#5B504C" fill-opacity="0.98" stroke="None">
<path d="
M 60.00 138.00 
C 59.73 136.44 60.00 134.59 60.00 133.00
C 58.30 134.94 59.33 136.11 60.00 138.00 Z"/>
</g>
<g fill="#443D41" fill-opacity="0.72" stroke="None">
<path d="
M 98.00 143.00 
C 97.69 142.78 95.21 140.35 95.00 140.00
C 95.65 141.35 96.66 142.26 98.00 143.00 Z"/>
</g>
<g fill="#232F56" fill-opacity="0.17" stroke="None">
<path d="
M 138.00 144.00 
C 136.87 143.03 135.89 141.15 135.00 140.00
C 135.30 141.26 135.66 142.57 138.00 144.00 Z"/>
</g>
<g fill="#78655C" fill-opacity="0.99" stroke="None">
<path d="
M 138.00 144.00 
C 138.57 144.35 139.49 144.48 140.00 145.00
C 138.61 143.93 136.28 141.37 135.00 140.00
C 135.89 141.15 136.87 143.03 138.00 144.00 Z"/>
</g>
</svg>